<mxfile host="app.diagrams.net" modified="2024-03-08T19:15:14.406Z" agent="Mozilla/5.0 (Macintosh; Intel Mac OS X 10_15_7) AppleWebKit/537.36 (KHTML, like Gecko) Chrome/122.0.0.0 Safari/537.36" version="24.0.2" etag="PuK67WoQShrUOFh04Mj8" type="github">
  <diagram name="Page-1" id="J4Kcs42Jpqx9HB2w8rO8">
    <mxGraphModel>
      <root>
        <mxCell id="0" />
        <mxCell id="1" parent="0" />
      </root>
    </mxGraphModel>
  </diagram>
</mxfile>
